<svg width="332" height="59" viewBox="0 0 332 59" fill="none" xmlns="http://www.w3.org/2000/svg">
<g clip-path="url(#clip0_165_8492)">
<path d="M7.72831 34.7135L13.9108 30.7687H15.4564V46.917H13.1957V33.7677L8.97404 36.559L7.72831 34.7135ZM19.7999 42.2801H22.0606C22.0606 43.2183 22.3913 43.9026 23.0526 44.3333C23.7139 44.7639 24.7443 44.9792 26.1438 44.9792C27.6664 44.9792 28.7814 44.7177 29.4888 44.1949C30.1963 43.672 30.55 42.8415 30.55 41.7034C30.55 40.5192 30.1655 39.6656 29.3966 39.1427C28.6276 38.6045 27.3896 38.3353 25.6825 38.3353C24.5444 38.3353 23.7139 38.4507 23.191 38.6814C22.6835 38.9121 22.4297 39.2889 22.4297 39.8117H20.3074V30.7687H31.7496V33.0295H22.4297V37.1588C23.2141 36.5283 24.5367 36.213 26.3976 36.213C28.6122 36.213 30.2347 36.6513 31.2652 37.5279C32.2956 38.3892 32.8108 39.7656 32.8108 41.6573C32.8108 43.5643 32.2802 44.9484 31.219 45.8097C30.1578 46.6709 28.4661 47.1015 26.1438 47.1015C23.9292 47.1015 22.3144 46.7171 21.2994 45.9481C20.2997 45.1791 19.7999 43.9565 19.7999 42.2801ZM38.2489 46.917H35.9882V29.6153H38.2489V39.7425H39.6792L43.5779 34.9211H46.3L41.5709 40.7806L46.7383 46.917H43.947L39.7023 41.8649H38.2489V46.917Z" fill="black"/>
<path d="M134.846 47.7345H137.86C137.86 48.9854 138.291 49.8979 139.152 50.472C140.014 51.0462 141.377 51.3333 143.243 51.3333C145.109 51.3333 146.463 51.0462 147.303 50.472C148.165 49.8979 148.595 48.9854 148.595 47.7345C148.595 46.4837 148.134 45.5814 147.211 45.0277C146.288 44.4741 144.802 44.1973 142.751 44.1973H141.644V41.552H142.905C144.812 41.552 146.186 41.2957 147.027 40.7831C147.888 40.2704 148.318 39.4194 148.318 38.2301C148.318 37.0818 147.919 36.2513 147.119 35.7386C146.34 35.226 145.078 34.9697 143.335 34.9697C141.572 34.9697 140.29 35.2362 139.491 35.7694C138.711 36.282 138.322 37.1125 138.322 38.2608H135.307C135.307 36.1282 135.943 34.5801 137.215 33.6163C138.486 32.632 140.526 32.1399 143.335 32.1399C146.145 32.1399 148.175 32.6013 149.426 33.524C150.697 34.4263 151.333 35.8822 151.333 37.8917C151.333 40.3524 150.328 42.0134 148.318 42.8746C150.512 43.7359 151.61 45.4789 151.61 48.1036C151.61 50.2157 150.943 51.7536 149.61 52.7174C148.298 53.6812 146.176 54.1631 143.243 54.1631C140.311 54.1631 138.178 53.6607 136.845 52.6559C135.513 51.6306 134.846 49.9901 134.846 47.7345ZM164.709 32.1399C168.052 32.1399 170.471 33.0114 171.968 34.7544C173.465 36.4973 174.214 39.2964 174.214 43.1515C174.214 47.0066 173.465 49.8056 171.968 51.5486C170.471 53.2916 168.052 54.1631 164.709 54.1631C161.387 54.1631 158.968 53.2916 157.45 51.5486C155.953 49.8056 155.205 47.0066 155.205 43.1515C155.205 39.2964 155.953 36.4973 157.45 34.7544C158.968 33.0114 161.387 32.1399 164.709 32.1399ZM158.219 43.1515C158.219 46.0018 158.732 48.0831 159.757 49.3955C160.803 50.6873 162.453 51.3333 164.709 51.3333C166.985 51.3333 168.636 50.6873 169.661 49.3955C170.687 48.0831 171.199 46.0018 171.199 43.1515C171.199 40.2807 170.687 38.1993 169.661 36.9075C168.656 35.6156 167.006 34.9697 164.709 34.9697C162.453 34.9697 160.803 35.6156 159.757 36.9075C158.732 38.1993 158.219 40.2807 158.219 43.1515ZM181.549 53.917H178.534V30.848H181.549V44.3511H183.456L188.654 37.9225H192.283L185.978 45.7352L192.868 53.917H189.146L183.486 47.1809H181.549V53.917Z" fill="black"/>
<path d="M278.212 42.2801H280.473C280.473 43.2183 280.803 43.9026 281.465 44.3333C282.126 44.7639 283.156 44.9792 284.556 44.9792C286.078 44.9792 287.193 44.7177 287.901 44.1949C288.608 43.672 288.962 42.8415 288.962 41.7034C288.962 40.5192 288.577 39.6656 287.808 39.1427C287.04 38.6045 285.801 38.3353 284.094 38.3353C282.956 38.3353 282.126 38.4507 281.603 38.6814C281.095 38.9121 280.842 39.2889 280.842 39.8117H278.719V30.7687H290.162V33.0295H280.842V37.1588C281.626 36.5283 282.949 36.213 284.81 36.213C287.024 36.213 288.647 36.6513 289.677 37.5279C290.707 38.3892 291.223 39.7656 291.223 41.6573C291.223 43.5643 290.692 44.9484 289.631 45.8097C288.57 46.6709 286.878 47.1015 284.556 47.1015C282.341 47.1015 280.726 46.7171 279.711 45.9481C278.712 45.1791 278.212 43.9565 278.212 42.2801ZM294.077 42.2801H296.338C296.338 43.2183 296.669 43.9026 297.33 44.3333C297.991 44.7639 299.022 44.9792 300.421 44.9792C301.944 44.9792 303.059 44.7177 303.766 44.1949C304.474 43.672 304.827 42.8415 304.827 41.7034C304.827 40.5192 304.443 39.6656 303.674 39.1427C302.905 38.6045 301.667 38.3353 299.96 38.3353C298.822 38.3353 297.991 38.4507 297.468 38.6814C296.961 38.9121 296.707 39.2889 296.707 39.8117H294.585V30.7687H306.027V33.0295H296.707V37.1588C297.491 36.5283 298.814 36.213 300.675 36.213C302.889 36.213 304.512 36.6513 305.542 37.5279C306.573 38.3892 307.088 39.7656 307.088 41.6573C307.088 43.5643 306.557 44.9484 305.496 45.8097C304.435 46.6709 302.743 47.1015 300.421 47.1015C298.206 47.1015 296.592 46.7171 295.577 45.9481C294.577 45.1791 294.077 43.9565 294.077 42.2801ZM312.526 46.917H310.265V29.6153H312.526V39.7425H313.956L317.855 34.9211H320.577L315.848 40.7806L321.016 46.917H318.224L313.98 41.8649H312.526V46.917Z" fill="black"/>
<circle cx="299.128" cy="15.921" r="3.84483" fill="#D9D9D9"/>
<line x1="26.9136" y1="16.305" x2="159.945" y2="16.305" stroke="#FF7F62" stroke-width="0.768966"/>
<line x1="163.79" y1="16.305" x2="296.821" y2="16.305" stroke="#D9D9D9" stroke-width="0.768966"/>
<circle cx="159.945" cy="15.9207" r="6.92069" fill="#FF7F62"/>
<circle cx="26.9137" cy="15.921" r="3.84483" fill="#FF7F62"/>
</g>
<defs>
<clipPath id="clip0_165_8492">
<rect width="331.424" height="58.4414" fill="white"/>
</clipPath>
</defs>
</svg>
