<svg width="151" height="56" viewBox="0 0 151 56" fill="none" xmlns="http://www.w3.org/2000/svg">
<rect x="0.5" y="0.5" width="150" height="55" rx="12.5" fill="white" fill-opacity="0.6"/>
<rect x="0.5" y="0.5" width="150" height="55" rx="12.5" fill="url(#paint0_linear_299_7754)"/>
<rect x="0.5" y="0.5" width="150" height="55" rx="12.5" fill="url(#paint1_linear_299_7754)"/>
<rect x="0.5" y="0.5" width="150" height="55" rx="12.5" stroke="#B3B3B3"/>
<path d="M48.3462 23.3972V33H47.1834V24.4287H42.3444V33H41.1816V23.3972H48.3462ZM53.4676 33.15C52.8174 33.15 52.247 32.9953 51.7562 32.6858C51.2685 32.3764 50.8872 31.9434 50.6121 31.387C50.3401 30.8306 50.2042 30.1804 50.2042 29.4365C50.2042 28.6862 50.3401 28.0314 50.6121 27.4718C50.8872 26.9123 51.2685 26.4778 51.7562 26.1683C52.247 25.8588 52.8174 25.7041 53.4676 25.7041C54.1178 25.7041 54.6867 25.8588 55.1744 26.1683C55.6651 26.4778 56.0465 26.9123 56.3185 27.4718C56.5935 28.0314 56.7311 28.6862 56.7311 29.4365C56.7311 30.1804 56.5935 30.8306 56.3185 31.387C56.0465 31.9434 55.6651 32.3764 55.1744 32.6858C54.6867 32.9953 54.1178 33.15 53.4676 33.15ZM53.4676 32.156C53.9615 32.156 54.3679 32.0294 54.6867 31.7762C55.0056 31.523 55.2416 31.1901 55.3948 30.7775C55.5479 30.3649 55.6245 29.9178 55.6245 29.4365C55.6245 28.9551 55.5479 28.5065 55.3948 28.0907C55.2416 27.675 55.0056 27.339 54.6867 27.0826C54.3679 26.8263 53.9615 26.6982 53.4676 26.6982C52.9737 26.6982 52.5674 26.8263 52.2485 27.0826C51.9297 27.339 51.6937 27.675 51.5405 28.0907C51.3873 28.5065 51.3107 28.9551 51.3107 29.4365C51.3107 29.9178 51.3873 30.3649 51.5405 30.7775C51.6937 31.1901 51.9297 31.523 52.2485 31.7762C52.5674 32.0294 52.9737 32.156 53.4676 32.156ZM57.6513 35.0631V31.9684H58.2514C58.3984 31.8153 58.525 31.6496 58.6312 31.4714C58.7375 31.2932 58.8297 31.0822 58.9079 30.8384C58.9892 30.5915 59.0579 30.2914 59.1142 29.9382C59.1705 29.5818 59.2205 29.152 59.2642 28.6487L59.5081 25.7979H64.0844V31.9684H65.191V35.0631H64.0844V33H58.7578V35.0631H57.6513ZM59.5081 31.9684H62.9778V26.8294H60.5396L60.3521 28.6487C60.2739 29.4021 60.177 30.0601 60.0614 30.6227C59.9457 31.1854 59.7613 31.634 59.5081 31.9684ZM69.5856 33.15C68.9354 33.15 68.365 32.9953 67.8742 32.6858C67.3866 32.3764 67.0052 31.9434 66.7301 31.387C66.4582 30.8306 66.3222 30.1804 66.3222 29.4365C66.3222 28.6862 66.4582 28.0314 66.7301 27.4718C67.0052 26.9123 67.3866 26.4778 67.8742 26.1683C68.365 25.8588 68.9354 25.7041 69.5856 25.7041C70.2358 25.7041 70.8047 25.8588 71.2924 26.1683C71.7832 26.4778 72.1645 26.9123 72.4365 27.4718C72.7116 28.0314 72.8491 28.6862 72.8491 29.4365C72.8491 30.1804 72.7116 30.8306 72.4365 31.387C72.1645 31.9434 71.7832 32.3764 71.2924 32.6858C70.8047 32.9953 70.2358 33.15 69.5856 33.15ZM69.5856 32.156C70.0795 32.156 70.4859 32.0294 70.8047 31.7762C71.1236 31.523 71.3596 31.1901 71.5128 30.7775C71.6659 30.3649 71.7425 29.9178 71.7425 29.4365C71.7425 28.9551 71.6659 28.5065 71.5128 28.0907C71.3596 27.675 71.1236 27.339 70.8047 27.0826C70.4859 26.8263 70.0795 26.6982 69.5856 26.6982C69.0917 26.6982 68.6854 26.8263 68.3665 27.0826C68.0477 27.339 67.8117 27.675 67.6585 28.0907C67.5053 28.5065 67.4288 28.9551 67.4288 29.4365C67.4288 29.9178 67.5053 30.3649 67.6585 30.7775C67.8117 31.1901 68.0477 31.523 68.3665 31.7762C68.6854 32.0294 69.0917 32.156 69.5856 32.156ZM79.8836 23.0971L80.4462 23.7723C80.2274 23.9849 79.9742 24.1333 79.6866 24.2177C79.3991 24.3021 79.074 24.3537 78.7114 24.3725C78.3488 24.3912 77.9455 24.41 77.5016 24.4287C77.0015 24.4475 76.5873 24.5694 76.2591 24.7945C75.9309 25.0195 75.6777 25.3446 75.4995 25.7698C75.3213 26.1949 75.2072 26.7169 75.1572 27.3358H75.251C75.4948 26.8857 75.8324 26.5544 76.2638 26.3418C76.6951 26.1292 77.1578 26.023 77.6517 26.023C78.2143 26.023 78.7207 26.1542 79.1709 26.4168C79.621 26.6794 79.9774 27.0686 80.2399 27.5843C80.5025 28.1001 80.6338 28.7362 80.6338 29.4927C80.6338 30.2461 80.4994 30.8963 80.2306 31.4433C79.9649 31.9903 79.5913 32.4123 79.1099 32.7093C78.6316 33.0031 78.0705 33.15 77.4266 33.15C76.7827 33.15 76.2184 32.9984 75.7339 32.6952C75.2494 32.3889 74.8727 31.9356 74.6039 31.3354C74.3351 30.7321 74.2007 29.9866 74.2007 29.0989V28.3299C74.2007 26.7263 74.4726 25.5103 75.0165 24.6819C75.5636 23.8536 76.3857 23.4253 77.4829 23.3972C77.8705 23.3847 78.2159 23.3816 78.5191 23.3878C78.8223 23.3941 79.0865 23.38 79.3115 23.3456C79.5366 23.3112 79.7273 23.2284 79.8836 23.0971ZM77.4266 32.156C77.8611 32.156 78.2347 32.0466 78.5472 31.8278C78.863 31.609 79.1052 31.3011 79.274 30.9041C79.4428 30.504 79.5272 30.0335 79.5272 29.4927C79.5272 28.9676 79.4413 28.5206 79.2693 28.1517C79.1005 27.7828 78.8583 27.5015 78.5426 27.3077C78.2268 27.1139 77.8486 27.017 77.4079 27.017C77.0859 27.017 76.7967 27.0717 76.5404 27.1811C76.2841 27.2905 76.0653 27.4515 75.884 27.6641C75.7027 27.8766 75.562 28.1361 75.462 28.4424C75.3651 28.7488 75.3135 29.0989 75.3072 29.4927C75.3072 30.2992 75.4964 30.9447 75.8746 31.4292C76.2528 31.9137 76.7702 32.156 77.4266 32.156ZM82.3265 35.7008V25.7979H83.3955V26.942H83.5268C83.6081 26.8169 83.7206 26.6575 83.8644 26.4637C84.0114 26.2668 84.2208 26.0917 84.4927 25.9386C84.7678 25.7823 85.1398 25.7041 85.6087 25.7041C86.2151 25.7041 86.7497 25.8557 87.2123 26.1589C87.6749 26.4621 88.036 26.892 88.2954 27.4484C88.5549 28.0048 88.6846 28.6612 88.6846 29.4177C88.6846 30.1804 88.5549 30.8416 88.2954 31.4011C88.036 31.9575 87.6765 32.3889 87.217 32.6952C86.7575 32.9984 86.2276 33.15 85.6275 33.15C85.1648 33.15 84.7944 33.0735 84.5162 32.9203C84.238 32.764 84.0239 32.5874 83.8738 32.3904C83.7238 32.1904 83.6081 32.0247 83.5268 31.8934H83.4331V35.7008H82.3265ZM83.4143 29.3989C83.4143 29.9429 83.494 30.4227 83.6534 30.8384C83.8129 31.251 84.0457 31.5746 84.3521 31.809C84.6584 32.0403 85.0335 32.156 85.4774 32.156C85.94 32.156 86.3261 32.0341 86.6356 31.7903C86.9482 31.5433 87.1826 31.212 87.3389 30.7962C87.4983 30.3774 87.578 29.9116 87.578 29.3989C87.578 28.8925 87.4999 28.4362 87.3436 28.0298C87.1904 27.6203 86.9575 27.2968 86.6449 27.0592C86.3355 26.8185 85.9463 26.6982 85.4774 26.6982C85.0273 26.6982 84.649 26.8122 84.3427 27.0404C84.0364 27.2655 83.805 27.5812 83.6487 27.9876C83.4925 28.3908 83.4143 28.8613 83.4143 29.3989ZM92.492 33.1688C92.0356 33.1688 91.6214 33.0828 91.2494 32.9109C90.8774 32.7359 90.582 32.4842 90.3632 32.156C90.1444 31.8247 90.035 31.4245 90.035 30.9557C90.035 30.543 90.1163 30.2086 90.2788 29.9522C90.4414 29.6928 90.6586 29.4896 90.9306 29.3427C91.2025 29.1958 91.5026 29.0864 91.8308 29.0145C92.1622 28.9394 92.4951 28.88 92.8296 28.8363C93.2672 28.78 93.622 28.7378 93.8939 28.7097C94.169 28.6784 94.3691 28.6268 94.4941 28.5549C94.6223 28.483 94.6864 28.358 94.6864 28.1798V28.1423C94.6864 27.6797 94.5598 27.3202 94.3066 27.0639C94.0565 26.8076 93.6767 26.6794 93.1672 26.6794C92.6389 26.6794 92.2247 26.7951 91.9246 27.0264C91.6245 27.2577 91.4135 27.5046 91.2916 27.7672L90.2413 27.3921C90.4289 26.9545 90.6789 26.6138 90.9915 26.3699C91.3072 26.123 91.6511 25.9511 92.0231 25.8542C92.3982 25.7541 92.767 25.7041 93.1297 25.7041C93.361 25.7041 93.6267 25.7322 93.9268 25.7885C94.23 25.8416 94.5222 25.9526 94.8036 26.1214C95.088 26.2902 95.324 26.545 95.5116 26.8857C95.6992 27.2264 95.7929 27.6828 95.7929 28.2549V33H94.6864V32.0247H94.6301C94.5551 32.181 94.43 32.3482 94.255 32.5264C94.0799 32.7046 93.847 32.8562 93.5563 32.9812C93.2656 33.1063 92.9108 33.1688 92.492 33.1688ZM92.6608 32.1748C93.0984 32.1748 93.4673 32.0888 93.7673 31.9169C94.0706 31.7449 94.2987 31.523 94.4519 31.251C94.6082 30.9791 94.6864 30.6931 94.6864 30.393V29.3802C94.6395 29.4365 94.5363 29.488 94.3769 29.5349C94.2206 29.5787 94.0393 29.6178 93.833 29.6521C93.6298 29.6834 93.4313 29.7115 93.2375 29.7365C93.0468 29.7584 92.8921 29.7772 92.7733 29.7928C92.4857 29.8303 92.2169 29.8913 91.9668 29.9757C91.7199 30.0569 91.5198 30.1804 91.3666 30.3461C91.2166 30.5086 91.1416 30.7306 91.1416 31.0119C91.1416 31.3964 91.2838 31.6871 91.5683 31.884C91.8558 32.0779 92.22 32.1748 92.6608 32.1748ZM96.8327 26.8294V25.7979H102.684V26.8294H100.321V33H99.2146V26.8294H96.8327ZM105.255 28.4049H107.318C108.162 28.4049 108.808 28.619 109.255 29.0473C109.702 29.4755 109.925 30.0179 109.925 30.6743C109.925 31.1057 109.825 31.498 109.625 31.8512C109.425 32.2013 109.131 32.4811 108.744 32.6905C108.356 32.8968 107.881 33 107.318 33H104.299V25.7979H105.405V31.9684H107.318C107.756 31.9684 108.115 31.8528 108.397 31.6215C108.678 31.3902 108.819 31.0932 108.819 30.7306C108.819 30.3492 108.678 30.0382 108.397 29.7975C108.115 29.5568 107.756 29.4365 107.318 29.4365H105.255V28.4049Z" fill="white"/>
<defs>
<linearGradient id="paint0_linear_299_7754" x1="-1.14656e-06" y1="32" x2="151.131" y2="26.8653" gradientUnits="userSpaceOnUse">
<stop stop-color="#F9F8F7"/>
<stop offset="1" stop-color="white"/>
</linearGradient>
<linearGradient id="paint1_linear_299_7754" x1="-1.14656e-06" y1="32" x2="151.131" y2="26.8653" gradientUnits="userSpaceOnUse">
<stop stop-color="#090909"/>
<stop offset="1" stop-color="#88837E"/>
</linearGradient>
</defs>
</svg>
