<svg width="143" height="56" viewBox="0 0 143 56" fill="none" xmlns="http://www.w3.org/2000/svg">
<rect x="0.5" y="0.5" width="142" height="55" rx="12.5" fill="white" fill-opacity="0.6"/>
<rect x="0.5" y="0.5" width="142" height="55" rx="12.5" fill="url(#paint0_linear_255_4152)"/>
<rect x="0.5" y="0.5" width="142" height="55" rx="12.5" fill="url(#paint1_linear_255_4152)"/>
<rect x="0.5" y="0.5" width="142" height="55" rx="12.5" stroke="#B3B3B3"/>
<path d="M41.1628 33V23.3972H44.5201C45.189 23.3972 45.7407 23.5128 46.1752 23.7442C46.6098 23.9724 46.9333 24.2803 47.1458 24.6679C47.3584 25.0524 47.4647 25.479 47.4647 25.9479C47.4647 26.3606 47.3912 26.7013 47.2443 26.9701C47.1005 27.2389 46.9098 27.4515 46.6723 27.6078C46.4378 27.7641 46.1831 27.8797 45.908 27.9548V28.0485C46.2018 28.0673 46.4972 28.1705 46.7942 28.358C47.0911 28.5456 47.3397 28.8144 47.5397 29.1645C47.7398 29.5146 47.8398 29.9429 47.8398 30.4493C47.8398 30.9306 47.7304 31.3636 47.5116 31.7481C47.2928 32.1326 46.9474 32.4373 46.4753 32.6624C46.0033 32.8875 45.3891 33 44.6326 33H41.1628ZM42.3257 31.9684H44.6326C45.3922 31.9684 45.9314 31.8215 46.2503 31.5277C46.5722 31.2307 46.7332 30.8713 46.7332 30.4493C46.7332 30.1242 46.6504 29.8241 46.4847 29.549C46.319 29.2708 46.083 29.0488 45.7767 28.8832C45.4704 28.7144 45.1077 28.63 44.6889 28.63H42.3257V31.9684ZM42.3257 27.6172H44.4826C44.8327 27.6172 45.1484 27.5484 45.4297 27.4109C45.7142 27.2733 45.9392 27.0795 46.1049 26.8294C46.2737 26.5794 46.3581 26.2855 46.3581 25.9479C46.3581 25.5259 46.2112 25.168 45.9174 24.8742C45.6235 24.5772 45.1578 24.4287 44.5201 24.4287H42.3257V27.6172ZM53.3141 33V25.7979H54.4206V28.9301H55.1521L57.7404 25.7979H59.1658L56.2587 29.2677L59.2033 33H57.7779L55.4147 29.9616H54.4206V33H53.3141ZM62.5254 33.1688C62.069 33.1688 61.6548 33.0828 61.2828 32.9109C60.9108 32.7359 60.6154 32.4842 60.3966 32.156C60.1778 31.8247 60.0684 31.4245 60.0684 30.9557C60.0684 30.543 60.1497 30.2086 60.3122 29.9522C60.4748 29.6928 60.692 29.4896 60.964 29.3427C61.2359 29.1958 61.536 29.0864 61.8642 29.0145C62.1956 28.9394 62.5285 28.88 62.863 28.8363C63.3006 28.78 63.6554 28.7378 63.9273 28.7097C64.2024 28.6784 64.4025 28.6268 64.5275 28.5549C64.6557 28.483 64.7198 28.358 64.7198 28.1798V28.1423C64.7198 27.6797 64.5932 27.3202 64.34 27.0639C64.0899 26.8076 63.7101 26.6794 63.2006 26.6794C62.6723 26.6794 62.2581 26.7951 61.958 27.0264C61.6579 27.2577 61.4469 27.5046 61.325 27.7672L60.2747 27.3921C60.4623 26.9545 60.7123 26.6138 61.0249 26.3699C61.3406 26.123 61.6845 25.9511 62.0565 25.8542C62.4316 25.7541 62.8004 25.7041 63.163 25.7041C63.3944 25.7041 63.6601 25.7322 63.9602 25.7885C64.2634 25.8416 64.5556 25.9526 64.837 26.1214C65.1214 26.2902 65.3574 26.545 65.545 26.8857C65.7326 27.2264 65.8263 27.6828 65.8263 28.2549V33H64.7198V32.0247H64.6635C64.5885 32.181 64.4634 32.3482 64.2884 32.5264C64.1133 32.7046 63.8804 32.8562 63.5897 32.9812C63.299 33.1063 62.9442 33.1688 62.5254 33.1688ZM62.6942 32.1748C63.1318 32.1748 63.5006 32.0888 63.8007 31.9169C64.1039 31.7449 64.3321 31.523 64.4853 31.251C64.6416 30.9791 64.7198 30.6931 64.7198 30.393V29.3802C64.6729 29.4365 64.5697 29.488 64.4103 29.5349C64.254 29.5787 64.0727 29.6178 63.8664 29.6521C63.6632 29.6834 63.4647 29.7115 63.2709 29.7365C63.0802 29.7584 62.9255 29.7772 62.8067 29.7928C62.5191 29.8303 62.2503 29.8913 62.0002 29.9757C61.7533 30.0569 61.5532 30.1804 61.4 30.3461C61.25 30.5086 61.175 30.7306 61.175 31.0119C61.175 31.3964 61.3172 31.6871 61.6017 31.884C61.8892 32.0779 62.2534 32.1748 62.6942 32.1748ZM66.8661 26.8294V25.7979H72.7178V26.8294H70.3546V33H69.248V26.8294H66.8661ZM76.0774 33.1688C75.621 33.1688 75.2068 33.0828 74.8348 32.9109C74.4628 32.7359 74.1674 32.4842 73.9486 32.156C73.7298 31.8247 73.6204 31.4245 73.6204 30.9557C73.6204 30.543 73.7017 30.2086 73.8642 29.9522C74.0268 29.6928 74.244 29.4896 74.516 29.3427C74.7879 29.1958 75.088 29.0864 75.4163 29.0145C75.7476 28.9394 76.0805 28.88 76.415 28.8363C76.8526 28.78 77.2074 28.7378 77.4794 28.7097C77.7544 28.6784 77.9545 28.6268 78.0795 28.5549C78.2077 28.483 78.2718 28.358 78.2718 28.1798V28.1423C78.2718 27.6797 78.1452 27.3202 77.892 27.0639C77.6419 26.8076 77.2621 26.6794 76.7526 26.6794C76.2243 26.6794 75.8101 26.7951 75.51 27.0264C75.2099 27.2577 74.9989 27.5046 74.877 27.7672L73.8267 27.3921C74.0143 26.9545 74.2644 26.6138 74.5769 26.3699C74.8927 26.123 75.2365 25.9511 75.6085 25.8542C75.9836 25.7541 76.3525 25.7041 76.7151 25.7041C76.9464 25.7041 77.2121 25.7322 77.5122 25.7885C77.8154 25.8416 78.1077 25.9526 78.389 26.1214C78.6735 26.2902 78.9095 26.545 79.097 26.8857C79.2846 27.2264 79.3784 27.6828 79.3784 28.2549V33H78.2718V32.0247H78.2155C78.1405 32.181 78.0155 32.3482 77.8404 32.5264C77.6653 32.7046 77.4325 32.8562 77.1418 32.9812C76.851 33.1063 76.4963 33.1688 76.0774 33.1688ZM76.2462 32.1748C76.6838 32.1748 77.0527 32.0888 77.3528 31.9169C77.656 31.7449 77.8842 31.523 78.0373 31.251C78.1936 30.9791 78.2718 30.6931 78.2718 30.393V29.3802C78.2249 29.4365 78.1217 29.488 77.9623 29.5349C77.806 29.5787 77.6247 29.6178 77.4184 29.6521C77.2152 29.6834 77.0167 29.7115 76.8229 29.7365C76.6322 29.7584 76.4775 29.7772 76.3587 29.7928C76.0711 29.8303 75.8023 29.8913 75.5522 29.9757C75.3053 30.0569 75.1052 30.1804 74.9521 30.3461C74.802 30.5086 74.727 30.7306 74.727 31.0119C74.727 31.3964 74.8692 31.6871 75.1537 31.884C75.4413 32.0779 75.8054 32.1748 76.2462 32.1748ZM80.7604 33V31.9684H81.023C81.2387 31.9684 81.4184 31.9262 81.5622 31.8418C81.706 31.7543 81.8216 31.6027 81.9092 31.387C81.9998 31.1682 82.0686 30.865 82.1155 30.4774C82.1655 30.0866 82.2014 29.5896 82.2233 28.9863L82.3546 25.7979H87.156V33H86.0495V26.8294H83.4049L83.2924 29.3989C83.2674 29.9897 83.2142 30.5102 83.133 30.9603C83.0548 31.4073 82.9345 31.7825 82.7719 32.0857C82.6125 32.3889 82.3999 32.6171 82.1342 32.7702C81.8685 32.9234 81.5356 33 81.1355 33H80.7604ZM92.1122 33.15C91.462 33.15 90.8915 32.9953 90.4007 32.6858C89.9131 32.3764 89.5317 31.9434 89.2566 31.387C88.9847 30.8306 88.8487 30.1804 88.8487 29.4365C88.8487 28.6862 88.9847 28.0314 89.2566 27.4718C89.5317 26.9123 89.9131 26.4778 90.4007 26.1683C90.8915 25.8588 91.462 25.7041 92.1122 25.7041C92.7624 25.7041 93.3313 25.8588 93.8189 26.1683C94.3097 26.4778 94.691 26.9123 94.963 27.4718C95.2381 28.0314 95.3756 28.6862 95.3756 29.4365C95.3756 30.1804 95.2381 30.8306 94.963 31.387C94.691 31.9434 94.3097 32.3764 93.8189 32.6858C93.3313 32.9953 92.7624 33.15 92.1122 33.15ZM92.1122 32.156C92.6061 32.156 93.0124 32.0294 93.3313 31.7762C93.6501 31.523 93.8861 31.1901 94.0393 30.7775C94.1925 30.3649 94.2691 29.9178 94.2691 29.4365C94.2691 28.9551 94.1925 28.5065 94.0393 28.0907C93.8861 27.675 93.6501 27.339 93.3313 27.0826C93.0124 26.8263 92.6061 26.6982 92.1122 26.6982C91.6183 26.6982 91.2119 26.8263 90.8931 27.0826C90.5742 27.339 90.3382 27.675 90.185 28.0907C90.0319 28.5065 89.9553 28.9551 89.9553 29.4365C89.9553 29.9178 90.0319 30.3649 90.185 30.7775C90.3382 31.1901 90.5742 31.523 90.8931 31.7762C91.2119 32.0294 91.6183 32.156 92.1122 32.156ZM101.51 25.7979V26.8294H98.1714V33H97.0648V25.7979H101.51Z" fill="white"/>
<defs>
<linearGradient id="paint0_linear_255_4152" x1="-1.08582e-06" y1="32" x2="143.141" y2="27.3944" gradientUnits="userSpaceOnUse">
<stop stop-color="#F9F8F7"/>
<stop offset="1" stop-color="white"/>
</linearGradient>
<linearGradient id="paint1_linear_255_4152" x1="-1.08582e-06" y1="32" x2="143.141" y2="27.3944" gradientUnits="userSpaceOnUse">
<stop stop-color="#090909"/>
<stop offset="1" stop-color="#88837E"/>
</linearGradient>
</defs>
</svg>
