<svg width="157" height="51" viewBox="0 0 157 51" fill="none" xmlns="http://www.w3.org/2000/svg">
<rect x="2.65918" width="153.965" height="39.9824" rx="14.2886" transform="rotate(3.81353 2.65918 0)" fill="black"/>
<path d="M27.2392 26.8504C26.4987 26.801 25.8727 26.5837 25.3612 26.1984C24.8498 25.813 24.4705 25.304 24.2234 24.6711C23.9764 24.0383 23.8791 23.3276 23.9317 22.5392C23.9851 21.737 24.1797 21.0389 24.5155 20.4449C24.8548 19.8477 25.3018 19.3937 25.8562 19.0829C26.4143 18.7689 27.0499 18.6356 27.7629 18.6831C28.3183 18.7202 28.812 18.8564 29.2439 19.0918C29.6758 19.3272 30.0218 19.6395 30.2816 20.0287C30.5415 20.4179 30.6892 20.8616 30.7249 21.3598L29.5113 21.2789C29.4427 20.9128 29.2583 20.5803 28.958 20.2813C28.6614 19.9792 28.2456 19.8103 27.7108 19.7747C27.2378 19.7431 26.8147 19.8389 26.4417 20.0619C26.0724 20.2818 25.7735 20.6079 25.5449 21.0404C25.3201 21.4696 25.1877 21.9824 25.148 22.5789C25.1073 23.1891 25.1679 23.7269 25.3297 24.1922C25.4949 24.6577 25.7458 25.0274 26.0822 25.3012C26.422 25.5752 26.8319 25.7282 27.3119 25.7602C27.6272 25.7812 27.9172 25.7455 28.1816 25.6529C28.446 25.5603 28.6742 25.4172 28.8662 25.2234C29.0582 25.0295 29.2014 24.7912 29.2961 24.5082L30.5096 24.5891C30.41 25.0508 30.2123 25.4594 29.9166 25.815C29.6245 26.1675 29.25 26.4386 28.7932 26.6286C28.34 26.8153 27.822 26.8892 27.2392 26.8504ZM32.1301 27.0111L32.6566 19.1126L33.8702 19.1935L33.6412 22.6285L34.4434 22.682L37.5109 19.4362L39.0741 19.5404L35.6323 23.1331L38.5888 27.4416L37.0255 27.3374L34.656 23.8325L33.5658 23.7598L33.3437 27.092L32.1301 27.0111ZM41.2406 25.8209L45.4531 19.9656L46.8518 20.0588L46.3253 27.9573L45.1117 27.8764L45.5189 21.7674L41.327 27.6241L39.9078 27.5295L40.4343 19.6311L41.6478 19.712L41.2406 25.8209ZM47.5539 30.3118L47.7801 26.918L48.4383 26.9618C48.6106 26.8046 48.7616 26.6322 48.8911 26.4445C49.0207 26.2569 49.1373 26.0322 49.2408 25.7706C49.348 25.5057 49.4453 25.1816 49.5329 24.7983C49.6206 24.4116 49.7069 23.9439 49.7917 23.3952L50.2675 20.2865L55.2863 20.6211L54.8352 27.3882L56.0488 27.4691L55.8226 30.863L54.609 30.7821L54.7598 28.5195L48.9182 28.1302L48.7674 30.3927L47.5539 30.3118ZM49.8164 27.0537L53.6217 27.3074L53.9973 21.6715L51.3234 21.4932L50.9847 23.4747C50.8439 24.2952 50.6895 25.0097 50.5216 25.6183C50.3536 26.2269 50.1185 26.7054 49.8164 27.0537ZM57.5842 28.7078L58.1107 20.8093L59.3242 20.8902L59.0953 24.3252L59.8975 24.3787L62.9649 21.1329L64.5282 21.2371L61.0864 24.8298L64.0428 29.1383L62.4796 29.0341L60.11 25.5292L59.0199 25.4565L58.7978 28.7887L57.5842 28.7078ZM66.6947 27.5176L70.9071 21.6623L72.3058 21.7555L71.7793 29.654L70.5658 29.5731L70.973 23.4641L66.7811 29.3208L65.3618 29.2262L65.8883 21.3278L67.1019 21.4087L66.6947 27.5176ZM77.0806 32.28L77.3068 28.8861L77.965 28.93C78.1373 28.7728 78.2883 28.6003 78.4178 28.4127C78.5474 28.2251 78.664 28.0004 78.7675 27.7387C78.8747 27.4738 78.972 27.1498 79.0596 26.7665C79.1473 26.3798 79.2336 25.9121 79.3184 25.3633L79.7942 22.2547L84.813 22.5892L84.3619 29.3564L85.5755 29.4373L85.3493 32.8312L84.1357 32.7503L84.2865 30.4877L78.4449 30.0983L78.2941 32.3609L77.0806 32.28ZM79.3431 29.0219L83.1484 29.2755L83.524 23.6396L80.8501 23.4614L80.5114 25.4429C80.3706 26.2633 80.2162 26.9779 80.0483 27.5865C79.8803 28.1951 79.6452 28.6736 79.3431 29.0219ZM90.3087 31.0544C89.5956 31.0069 88.9813 30.7955 88.4657 30.4202C87.9535 30.0452 87.5669 29.5425 87.3059 28.9122C87.0484 28.2821 86.9468 27.5591 87.0011 26.7432C87.056 25.9204 87.253 25.2122 87.5921 24.6184C87.9347 24.0249 88.3847 23.5762 88.9421 23.2725C89.503 22.969 90.1399 22.841 90.853 22.8885C91.566 22.9361 92.1787 23.1473 92.6908 23.5224C93.2064 23.8976 93.5929 24.402 93.8502 25.0356C94.111 25.6693 94.214 26.3976 94.1591 27.2203C94.1047 28.0362 93.9064 28.7392 93.564 29.3293C93.2251 29.9197 92.7752 30.3666 92.2144 30.6701C91.657 30.9738 91.0217 31.1019 90.3087 31.0544ZM90.3813 29.9642C90.923 30.0004 91.3779 29.8912 91.7461 29.6368C92.1143 29.3825 92.3974 29.0346 92.5956 28.5933C92.7937 28.152 92.9104 27.6674 92.9456 27.1394C92.9808 26.6115 92.9296 26.114 92.792 25.6468C92.6544 25.1797 92.4201 24.7939 92.0892 24.4895C91.7583 24.1851 91.322 24.0148 90.7803 23.9787C90.2387 23.9426 89.7836 24.0534 89.4152 24.3112C89.0468 24.569 88.7634 24.9203 88.5651 25.3651C88.3667 25.8098 88.2499 26.2961 88.2147 26.8241C88.1795 27.352 88.2308 27.8478 88.3687 28.3116C88.5065 28.7753 88.741 29.1576 89.0721 29.4586C89.4033 29.7596 89.8397 29.9281 90.3813 29.9642ZM103.868 21.0702C104.299 21.1024 104.726 21.2135 105.147 21.4034C105.568 21.5933 105.945 21.887 106.276 22.2844C106.608 22.6784 106.861 23.2032 107.034 23.8586C107.207 24.5141 107.261 25.3252 107.197 26.2919C107.135 27.2278 106.99 28.0532 106.763 28.7681C106.54 29.4798 106.246 30.0731 105.88 30.548C105.518 31.0231 105.092 31.3735 104.602 31.5991C104.115 31.8249 103.575 31.918 102.982 31.8785C102.392 31.8392 101.874 31.6876 101.426 31.4236C100.983 31.1564 100.628 30.8039 100.361 30.366C100.097 29.9249 99.943 29.424 99.8978 28.8631L101.152 28.9468C101.233 29.4377 101.431 29.852 101.746 30.1898C102.065 30.5244 102.502 30.7102 103.057 30.7472C103.87 30.8014 104.534 30.4893 105.051 29.811C105.572 29.1329 105.875 28.1459 105.961 26.8501L105.879 26.8446C105.668 27.1197 105.424 27.3531 105.146 27.5446C104.868 27.7361 104.564 27.8777 104.234 27.9694C103.904 28.061 103.558 28.0947 103.194 28.0705C102.591 28.0303 102.047 27.8443 101.563 27.5124C101.083 27.1774 100.709 26.7375 100.442 26.1929C100.179 25.6451 100.071 25.0318 100.116 24.353C100.159 23.7085 100.342 23.1285 100.666 22.6129C100.993 22.0941 101.429 21.6928 101.975 21.4089C102.524 21.1253 103.155 21.0124 103.868 21.0702ZM103.792 22.2015C103.36 22.1727 102.964 22.2548 102.603 22.4477C102.246 22.6373 101.955 22.9071 101.728 23.257C101.505 23.6037 101.379 23.9965 101.35 24.4353C101.321 24.8741 101.39 25.2799 101.558 25.6526C101.73 26.0222 101.976 26.3244 102.298 26.5594C102.624 26.7911 103.002 26.9214 103.434 26.9502C103.76 26.9719 104.068 26.9287 104.357 26.8206C104.647 26.7091 104.904 26.5488 105.128 26.34C105.355 26.1279 105.539 25.8835 105.678 25.607C105.817 25.327 105.897 25.0311 105.918 24.7191C105.945 24.3077 105.871 23.9154 105.696 23.5422C105.525 23.1692 105.274 22.8598 104.942 22.6139C104.614 22.3682 104.231 22.2307 103.792 22.2015ZM112.265 32.4973C111.49 32.4456 110.844 32.1908 110.327 31.7328C109.81 31.2714 109.435 30.6283 109.201 29.8035C108.967 28.9752 108.888 27.9886 108.964 26.8436C109.04 25.7054 109.249 24.7432 109.59 23.9567C109.936 23.1671 110.395 22.5779 110.969 22.1892C111.546 21.7972 112.218 21.6268 112.986 21.678C113.754 21.7292 114.396 21.9872 114.913 22.4521C115.433 22.9137 115.81 23.5587 116.044 24.3869C116.282 25.212 116.363 26.1935 116.287 27.3317C116.21 28.4767 116.001 29.4441 115.659 30.234C115.318 31.0204 114.86 31.608 114.287 31.9967C113.714 32.3821 113.04 32.5489 112.265 32.4973ZM112.34 31.366C113.108 31.4172 113.729 31.0867 114.204 30.3745C114.678 29.6624 114.961 28.6207 115.053 27.2494C115.113 26.3375 115.067 25.5546 114.915 24.9005C114.765 24.2466 114.52 23.7396 114.179 23.3794C113.842 23.0194 113.419 22.8226 112.912 22.7887C112.151 22.738 111.531 23.0737 111.053 23.7959C110.574 24.5147 110.289 25.558 110.198 26.9259C110.137 27.8377 110.182 28.6189 110.331 29.2693C110.481 29.9198 110.724 30.4233 111.062 30.7798C111.403 31.1365 111.829 31.3319 112.34 31.366ZM123.39 31.1108L123.427 30.5555C123.452 30.1715 123.555 29.8254 123.734 29.5171C123.916 29.2056 124.167 28.964 124.484 28.7924C124.806 28.6175 125.186 28.5447 125.625 28.574C126.071 28.6037 126.438 28.7263 126.726 28.9418C127.015 29.1539 127.226 29.4262 127.359 29.7587C127.492 30.0878 127.546 30.4444 127.52 30.8283L127.483 31.3837C127.457 31.7676 127.355 32.1155 127.176 32.4272C127 32.7357 126.754 32.9775 126.435 33.1526C126.121 33.3245 125.744 33.3958 125.306 33.3665C124.86 33.3368 124.491 33.2158 124.199 33.0035C123.906 32.7878 123.692 32.5152 123.556 32.1859C123.42 31.8531 123.364 31.4948 123.39 31.1108ZM124.476 30.6254L124.439 31.1807C124.418 31.4996 124.474 31.7908 124.608 32.0546C124.742 32.3149 124.994 32.4574 125.364 32.4821C125.724 32.5061 125.986 32.3978 126.151 32.1574C126.318 31.9138 126.413 31.6326 126.434 31.3137L126.471 30.7584C126.492 30.4396 126.439 30.1502 126.312 29.8904C126.185 29.6271 125.936 29.4831 125.566 29.4584C125.206 29.4344 124.939 29.544 124.764 29.7872C124.593 30.0272 124.497 30.3066 124.476 30.6254ZM118.546 24.7345L118.583 24.1791C118.609 23.7952 118.711 23.4491 118.89 23.1408C119.073 22.8292 119.323 22.5877 119.641 22.416C119.963 22.2412 120.343 22.1684 120.782 22.1977C121.227 22.2274 121.594 22.35 121.883 22.5655C122.172 22.7776 122.383 23.0499 122.516 23.3824C122.649 23.7115 122.702 24.068 122.677 24.452L122.64 25.0073C122.614 25.3913 122.512 25.7391 122.333 26.0509C122.157 26.3594 121.91 26.6012 121.592 26.7763C121.278 26.9482 120.901 27.0195 120.462 26.9902C120.016 26.9605 119.648 26.8395 119.355 26.6272C119.063 26.4114 118.849 26.1389 118.712 25.8096C118.576 25.4768 118.521 25.1185 118.546 24.7345ZM119.633 24.2491L119.595 24.8044C119.574 25.1232 119.631 25.4145 119.765 25.6783C119.899 25.9386 120.151 26.0811 120.521 26.1057C120.881 26.1297 121.143 26.0215 121.307 25.7811C121.475 25.5375 121.569 25.2562 121.591 24.9374L121.628 24.3821C121.649 24.0632 121.596 23.7739 121.469 23.5141C121.342 23.2508 121.093 23.1068 120.723 23.0821C120.363 23.0581 120.095 23.1677 119.921 23.4109C119.75 23.6509 119.654 23.9303 119.633 24.2491ZM118.404 32.7619L126.346 22.7132L127.519 22.7913L119.576 32.84L118.404 32.7619ZM131.982 23.0889L131.375 30.6514L130.182 30.5719L130.583 22.9956L131.982 23.0889ZM130.575 33.6558C130.322 33.6389 130.11 33.5335 129.94 33.3397C129.771 33.1459 129.694 32.9222 129.711 32.6685C129.728 32.4148 129.834 32.2032 130.027 32.0336C130.221 31.864 130.445 31.7877 130.699 31.8046C130.952 31.8215 131.164 31.9269 131.334 32.1207C131.503 32.3145 131.579 32.5382 131.563 32.7919C131.551 32.9599 131.498 33.1113 131.403 33.2461C131.312 33.3812 131.193 33.4869 131.046 33.5633C130.904 33.6364 130.747 33.6672 130.575 33.6558Z" fill="white"/>
</svg>
