<svg width="65" height="36" viewBox="0 0 65 36" fill="none" xmlns="http://www.w3.org/2000/svg">
<rect width="65" height="36" rx="13" fill="#FF4C4C"/>
<path d="M20.2375 17.4999V18.8972H15.9143V17.4999H20.2375ZM21.8305 21.2182V19.835L25.9052 13.3972H27.0586V15.3665H26.3553L23.6123 19.7131V19.7881H29.2999V21.2182H21.8305ZM26.4116 23V20.7962L26.4303 20.1773V13.3972H28.0714V23H26.4116ZM34.3475 23.1829C33.5754 23.1829 32.9127 22.9875 32.3594 22.5968C31.8092 22.2029 31.3857 21.6355 31.0887 20.8947C30.7949 20.1507 30.648 19.2552 30.648 18.208C30.6511 17.1608 30.7996 16.2699 31.0934 15.5353C31.3904 14.7976 31.8139 14.2349 32.3641 13.8473C32.9174 13.4597 33.5785 13.2659 34.3475 13.2659C35.1164 13.2659 35.7776 13.4597 36.3309 13.8473C36.8842 14.2349 37.3077 14.7976 37.6016 15.5353C37.8985 16.273 38.047 17.1639 38.047 18.208C38.047 19.2583 37.8985 20.1554 37.6016 20.8994C37.3077 21.6402 36.8842 22.206 36.3309 22.5968C35.7807 22.9875 35.1196 23.1829 34.3475 23.1829ZM34.3475 21.7152C34.9476 21.7152 35.4212 21.4198 35.7682 20.8291C36.1183 20.2351 36.2934 19.3614 36.2934 18.208C36.2934 17.4452 36.2136 16.8044 36.0542 16.2855C35.8948 15.7666 35.6697 15.3759 35.379 15.1133C35.0883 14.8476 34.7445 14.7148 34.3475 14.7148C33.7504 14.7148 33.2784 15.0117 32.9314 15.6056C32.5845 16.1964 32.4094 17.0639 32.4063 18.208C32.4032 18.9738 32.4797 19.6178 32.636 20.1398C32.7955 20.6618 33.0205 21.0557 33.3112 21.3214C33.6019 21.584 33.9474 21.7152 34.3475 21.7152ZM44.7392 21.1995V20.6931C44.7392 20.3211 44.8173 19.9788 44.9736 19.6662C45.1331 19.3536 45.3644 19.102 45.6676 18.9113C45.9708 18.7206 46.3381 18.6253 46.7695 18.6253C47.2134 18.6253 47.5853 18.7206 47.8854 18.9113C48.1855 19.0989 48.4121 19.3489 48.5653 19.6615C48.7216 19.9741 48.7998 20.318 48.7998 20.6931V21.1995C48.7998 21.5715 48.7216 21.9137 48.5653 22.2263C48.409 22.5389 48.1793 22.7906 47.8761 22.9812C47.576 23.1719 47.2071 23.2673 46.7695 23.2673C46.3318 23.2673 45.9614 23.1719 45.6582 22.9812C45.355 22.7906 45.1252 22.5389 44.9689 22.2263C44.8158 21.9137 44.7392 21.5715 44.7392 21.1995ZM45.963 20.6931V21.1995C45.963 21.4464 46.0224 21.673 46.1412 21.8794C46.26 22.0857 46.4694 22.1888 46.7695 22.1888C47.0727 22.1888 47.2806 22.0872 47.3931 21.884C47.5088 21.6777 47.5666 21.4495 47.5666 21.1995V20.6931C47.5666 20.443 47.5119 20.2148 47.4025 20.0085C47.2931 19.7991 47.0821 19.6943 46.7695 19.6943C46.4756 19.6943 46.2678 19.7991 46.1459 20.0085C46.0239 20.2148 45.963 20.443 45.963 20.6931ZM39.8581 15.7041V15.1977C39.8581 14.8226 39.9378 14.4787 40.0972 14.1662C40.2566 13.8536 40.4879 13.6035 40.7912 13.4159C41.0944 13.2253 41.4617 13.1299 41.893 13.1299C42.3338 13.1299 42.7042 13.2253 43.0043 13.4159C43.3075 13.6035 43.5357 13.8536 43.6889 14.1662C43.8421 14.4787 43.9186 14.8226 43.9186 15.1977V15.7041C43.9186 16.0792 43.8405 16.4231 43.6842 16.7357C43.531 17.0451 43.3028 17.2936 42.9996 17.4812C42.6964 17.6687 42.3275 17.7625 41.893 17.7625C41.4523 17.7625 41.0803 17.6687 40.7771 17.4812C40.477 17.2936 40.2488 17.0436 40.0925 16.731C39.9362 16.4184 39.8581 16.0761 39.8581 15.7041ZM41.0912 15.1977V15.7041C41.0912 15.9542 41.1491 16.1824 41.2647 16.3887C41.3835 16.5919 41.593 16.6935 41.893 16.6935C42.1931 16.6935 42.3994 16.5919 42.512 16.3887C42.6276 16.1824 42.6855 15.9542 42.6855 15.7041V15.1977C42.6855 14.9476 42.6308 14.7194 42.5214 14.5131C42.4119 14.3037 42.2025 14.199 41.893 14.199C41.5961 14.199 41.3882 14.3037 41.2694 14.5131C41.1506 14.7226 41.0912 14.9508 41.0912 15.1977ZM40.3926 23L46.9945 13.3972H48.1668L41.5648 23H40.3926Z" fill="white"/>
</svg>
