<svg width="446" height="55" viewBox="0 0 446 55" fill="none" xmlns="http://www.w3.org/2000/svg">
<rect width="232" height="55" rx="27.5" fill="white"/>
<rect x="241" width="205" height="55" rx="27.5" fill="url(#paint0_linear_293_7753)"/>
<path d="M309.346 22.8972V32.5H308.183V23.9287H303.344V32.5H302.182V22.8972H309.346ZM314.468 32.65C313.817 32.65 313.247 32.4953 312.756 32.1858C312.269 31.8764 311.887 31.4434 311.612 30.887C311.34 30.3306 311.204 29.6804 311.204 28.9365C311.204 28.1862 311.34 27.5314 311.612 26.9718C311.887 26.4123 312.269 25.9778 312.756 25.6683C313.247 25.3588 313.817 25.2041 314.468 25.2041C315.118 25.2041 315.687 25.3588 316.174 25.6683C316.665 25.9778 317.047 26.4123 317.318 26.9718C317.594 27.5314 317.731 28.1862 317.731 28.9365C317.731 29.6804 317.594 30.3306 317.318 30.887C317.047 31.4434 316.665 31.8764 316.174 32.1858C315.687 32.4953 315.118 32.65 314.468 32.65ZM314.468 31.656C314.962 31.656 315.368 31.5294 315.687 31.2762C316.006 31.023 316.242 30.6901 316.395 30.2775C316.548 29.8649 316.625 29.4178 316.625 28.9365C316.625 28.4551 316.548 28.0065 316.395 27.5907C316.242 27.175 316.006 26.839 315.687 26.5826C315.368 26.3263 314.962 26.1982 314.468 26.1982C313.974 26.1982 313.567 26.3263 313.249 26.5826C312.93 26.839 312.694 27.175 312.54 27.5907C312.387 28.0065 312.311 28.4551 312.311 28.9365C312.311 29.4178 312.387 29.8649 312.54 30.2775C312.694 30.6901 312.93 31.023 313.249 31.2762C313.567 31.5294 313.974 31.656 314.468 31.656ZM318.651 34.5631V31.4684H319.251C319.398 31.3153 319.525 31.1496 319.631 30.9714C319.738 30.7932 319.83 30.5822 319.908 30.3384C319.989 30.0915 320.058 29.7914 320.114 29.4382C320.17 29.0818 320.22 28.652 320.264 28.1487L320.508 25.2979H325.084V31.4684H326.191V34.5631H325.084V32.5H319.758V34.5631H318.651ZM320.508 31.4684H323.978V26.3294H321.54L321.352 28.1487C321.274 28.9021 321.177 29.5601 321.061 30.1227C320.946 30.6854 320.761 31.134 320.508 31.4684ZM327.66 32.5V25.2979H333.324V32.5H332.217V26.3294H328.766V32.5H327.66ZM336.451 30.8683L339.921 25.2979H341.197V32.5H340.09V26.9296L336.639 32.5H335.345V25.2979H336.451V30.8683ZM346.149 32.65C345.474 32.65 344.893 32.4906 344.405 32.1718C343.917 31.8529 343.542 31.4137 343.28 30.8542C343.017 30.2947 342.886 29.6554 342.886 28.9365C342.886 28.205 343.02 27.5595 343.289 26.9999C343.561 26.4373 343.939 25.9981 344.424 25.6824C344.911 25.3635 345.48 25.2041 346.13 25.2041C346.637 25.2041 347.093 25.2979 347.5 25.4854C347.906 25.673 348.239 25.9356 348.498 26.2732C348.758 26.6108 348.919 27.0046 348.981 27.4548H347.875C347.79 27.1265 347.603 26.8358 347.312 26.5826C347.024 26.3263 346.637 26.1982 346.149 26.1982C345.718 26.1982 345.34 26.3107 345.014 26.5357C344.693 26.7577 344.441 27.0718 344.26 27.4782C344.081 27.8815 343.992 28.355 343.992 28.8989C343.992 29.4554 344.08 29.9399 344.255 30.3525C344.433 30.7651 344.683 31.0855 345.005 31.3137C345.33 31.5419 345.712 31.656 346.149 31.656C346.437 31.656 346.698 31.606 346.932 31.506C347.167 31.4059 347.365 31.2621 347.528 31.0746C347.69 30.887 347.806 30.662 347.875 30.3994H348.981C348.919 30.8245 348.764 31.2074 348.517 31.5482C348.273 31.8858 347.95 32.1546 347.546 32.3546C347.146 32.5516 346.681 32.65 346.149 32.65ZM352.718 32.6688C352.262 32.6688 351.848 32.5828 351.476 32.4109C351.104 32.2359 350.808 31.9842 350.59 31.656C350.371 31.3247 350.261 30.9245 350.261 30.4557C350.261 30.043 350.343 29.7086 350.505 29.4522C350.668 29.1928 350.885 28.9896 351.157 28.8427C351.429 28.6958 351.729 28.5864 352.057 28.5145C352.389 28.4394 352.721 28.38 353.056 28.3363C353.494 28.28 353.848 28.2378 354.12 28.2097C354.395 28.1784 354.595 28.1268 354.72 28.0549C354.849 27.983 354.913 27.858 354.913 27.6798V27.6423C354.913 27.1797 354.786 26.8202 354.533 26.5639C354.283 26.3076 353.903 26.1794 353.393 26.1794C352.865 26.1794 352.451 26.2951 352.151 26.5264C351.851 26.7577 351.64 27.0046 351.518 27.2672L350.468 26.8921C350.655 26.4545 350.905 26.1138 351.218 25.8699C351.534 25.623 351.877 25.4511 352.249 25.3542C352.625 25.2541 352.993 25.2041 353.356 25.2041C353.587 25.2041 353.853 25.2322 354.153 25.2885C354.456 25.3416 354.749 25.4526 355.03 25.6214C355.314 25.7902 355.55 26.045 355.738 26.3857C355.925 26.7264 356.019 27.1828 356.019 27.7549V32.5H354.913V31.5247H354.856C354.781 31.681 354.656 31.8482 354.481 32.0264C354.306 32.2046 354.073 32.3562 353.783 32.4812C353.492 32.6063 353.137 32.6688 352.718 32.6688ZM352.887 31.6748C353.325 31.6748 353.694 31.5888 353.994 31.4169C354.297 31.2449 354.525 31.023 354.678 30.751C354.835 30.4791 354.913 30.1931 354.913 29.893V28.8802C354.866 28.9365 354.763 28.988 354.603 29.0349C354.447 29.0787 354.266 29.1178 354.059 29.1521C353.856 29.1834 353.658 29.2115 353.464 29.2365C353.273 29.2584 353.118 29.2772 353 29.2928C352.712 29.3303 352.443 29.3913 352.193 29.4757C351.946 29.5569 351.746 29.6804 351.593 29.8461C351.443 30.0086 351.368 30.2306 351.368 30.5119C351.368 30.8964 351.51 31.1871 351.795 31.384C352.082 31.5779 352.446 31.6748 352.887 31.6748ZM357.059 26.3294V25.2979H362.911V26.3294H360.548V32.5H359.441V26.3294H357.059ZM365.481 27.9049H367.545C368.389 27.9049 369.034 28.119 369.481 28.5473C369.928 28.9755 370.152 29.5179 370.152 30.1743C370.152 30.6057 370.052 30.998 369.851 31.3512C369.651 31.7013 369.358 31.9811 368.97 32.1905C368.582 32.3968 368.107 32.5 367.545 32.5H364.525V25.2979H365.631V31.4684H367.545C367.982 31.4684 368.342 31.3528 368.623 31.1215C368.904 30.8902 369.045 30.5932 369.045 30.2306C369.045 29.8492 368.904 29.5382 368.623 29.2975C368.342 29.0568 367.982 28.9365 367.545 28.9365H365.481V27.9049ZM374.762 32.65C374.087 32.65 373.505 32.4906 373.018 32.1718C372.53 31.8529 372.155 31.4137 371.892 30.8542C371.63 30.2947 371.498 29.6554 371.498 28.9365C371.498 28.205 371.633 27.5595 371.902 26.9999C372.174 26.4373 372.552 25.9981 373.036 25.6824C373.524 25.3635 374.093 25.2041 374.743 25.2041C375.25 25.2041 375.706 25.2979 376.112 25.4854C376.519 25.673 376.852 25.9356 377.111 26.2732C377.37 26.6108 377.531 27.0046 377.594 27.4548H376.487C376.403 27.1265 376.215 26.8358 375.925 26.5826C375.637 26.3263 375.25 26.1982 374.762 26.1982C374.33 26.1982 373.952 26.3107 373.627 26.5357C373.305 26.7577 373.054 27.0718 372.872 27.4782C372.694 27.8815 372.605 28.355 372.605 28.8989C372.605 29.4554 372.693 29.9399 372.868 30.3525C373.046 30.7651 373.296 31.0855 373.618 31.3137C373.943 31.5419 374.324 31.656 374.762 31.656C375.049 31.656 375.31 31.606 375.545 31.506C375.779 31.4059 375.978 31.2621 376.14 31.0746C376.303 30.887 376.419 30.662 376.487 30.3994H377.594C377.531 30.8245 377.377 31.2074 377.13 31.5482C376.886 31.8858 376.562 32.1546 376.159 32.3546C375.759 32.5516 375.293 32.65 374.762 32.65ZM383.544 32.5V26.3107H381.631C381.2 26.3107 380.861 26.4107 380.614 26.6108C380.367 26.8108 380.243 27.0859 380.243 27.436C380.243 27.7799 380.354 28.0503 380.576 28.2472C380.801 28.4441 381.109 28.5426 381.5 28.5426H383.825V29.5741H381.5C381.012 29.5741 380.592 29.4882 380.238 29.3163C379.885 29.1443 379.613 28.8989 379.423 28.5801C379.232 28.2581 379.137 27.8768 379.137 27.436C379.137 26.9921 379.237 26.6108 379.437 26.2919C379.637 25.9731 379.923 25.7277 380.295 25.5558C380.67 25.3838 381.115 25.2979 381.631 25.2979H384.594V32.5H383.544ZM378.743 32.5L380.787 28.9177H381.987L379.943 32.5H378.743Z" fill="black"/>
<defs>
<linearGradient id="paint0_linear_293_7753" x1="241" y1="31.4286" x2="445.963" y2="21.8028" gradientUnits="userSpaceOnUse">
<stop stop-color="#F9F8F7"/>
<stop offset="1" stop-color="white"/>
</linearGradient>
</defs>
</svg>
