<svg width="255" height="36" viewBox="0 0 255 36" fill="none" xmlns="http://www.w3.org/2000/svg">
<rect width="59" height="36" rx="13" fill="black"/>
<path d="M15.9472 23V13.3972H17.6867V17.4624H22.1365V13.3972H23.8807V23H22.1365V18.9207H17.6867V23H15.9472ZM34.3533 18.1986C34.3533 19.2333 34.1595 20.1195 33.7719 20.8572C33.3874 21.5918 32.8623 22.1544 32.1965 22.5452C31.5338 22.9359 30.782 23.1313 29.9411 23.1313C29.1002 23.1313 28.3469 22.9359 27.6811 22.5452C27.0184 22.1513 26.4932 21.5871 26.1056 20.8525C25.7211 20.1148 25.5289 19.2301 25.5289 18.1986C25.5289 17.1639 25.7211 16.2793 26.1056 15.5447C26.4932 14.807 27.0184 14.2427 27.6811 13.852C28.3469 13.4613 29.1002 13.2659 29.9411 13.2659C30.782 13.2659 31.5338 13.4613 32.1965 13.852C32.8623 14.2427 33.3874 14.807 33.7719 15.5447C34.1595 16.2793 34.3533 17.1639 34.3533 18.1986ZM32.6044 18.1986C32.6044 17.4703 32.4903 16.856 32.2621 16.3559C32.037 15.8526 31.7244 15.4728 31.3243 15.2165C30.9242 14.957 30.4631 14.8273 29.9411 14.8273C29.4191 14.8273 28.958 14.957 28.5579 15.2165C28.1578 15.4728 27.8436 15.8526 27.6154 16.3559C27.3904 16.856 27.2778 17.4703 27.2778 18.1986C27.2778 18.9269 27.3904 19.5427 27.6154 20.046C27.8436 20.5462 28.1578 20.926 28.5579 21.1854C28.958 21.4417 29.4191 21.5699 29.9411 21.5699C30.4631 21.5699 30.9242 21.4417 31.3243 21.1854C31.7244 20.926 32.037 20.5462 32.2621 20.046C32.4903 19.5427 32.6044 18.9269 32.6044 18.1986ZM35.1504 14.8554V13.3972H42.8121V14.8554H39.844V23H38.1185V14.8554H35.1504Z" fill="white"/>
<path d="M253.45 11.695C252.549 10.7363 251.354 10.1512 250.082 10.0453C248.81 9.93945 247.543 10.3198 246.512 11.1177C245.431 10.264 244.084 9.87695 242.744 10.0344C241.404 10.1918 240.17 10.8821 239.291 11.9661C238.411 13.0502 237.951 14.4476 238.004 15.8768C238.057 17.3061 238.618 18.6611 239.575 19.669L244.854 25.2796C245.297 25.7413 245.892 26 246.512 26C247.133 26 247.728 25.7413 248.17 25.2796L253.45 19.669C254.443 18.6093 255 17.176 255 15.682C255 14.188 254.443 12.7546 253.45 11.695ZM252.251 18.4242L246.971 24.0258C246.911 24.0902 246.84 24.1413 246.761 24.1761C246.682 24.211 246.598 24.2289 246.512 24.2289C246.427 24.2289 246.342 24.211 246.264 24.1761C246.185 24.1413 246.113 24.0902 246.053 24.0258L240.773 18.3971C240.107 17.674 239.733 16.7026 239.733 15.691C239.733 14.6794 240.107 13.708 240.773 12.9849C241.453 12.2732 242.369 11.8741 243.324 11.8741C244.279 11.8741 245.195 12.2732 245.875 12.9849C245.954 13.0694 246.048 13.1365 246.151 13.1823C246.255 13.2281 246.366 13.2517 246.478 13.2517C246.591 13.2517 246.702 13.2281 246.805 13.1823C246.909 13.1365 247.003 13.0694 247.082 12.9849C247.761 12.2732 248.678 11.8741 249.633 11.8741C250.587 11.8741 251.504 12.2732 252.183 12.9849C252.859 13.6985 253.245 14.6647 253.258 15.6763C253.27 16.6879 252.909 17.6646 252.251 18.3971V18.4242Z" fill="#BEBEBE"/>
</svg>
