<svg width="62" height="36" viewBox="0 0 62 36" fill="none" xmlns="http://www.w3.org/2000/svg">
<rect width="62" height="36" rx="13" fill="#FF4C4C"/>
<path d="M23.8385 13.3972V23H22.2912L17.7664 16.459H17.6867V23H15.9472V13.3972H17.5039L22.0239 19.9429H22.1083V13.3972H23.8385ZM25.734 23V13.3972H31.9796V14.8554H27.4736V17.4624H31.6561V18.9207H27.4736V21.5418H32.0171V23H25.734ZM35.7752 23L33.0651 13.3972H34.9359L36.6661 20.4539H36.7552L38.6026 13.3972H40.3047L42.1568 20.4586H42.2412L43.9714 13.3972H45.8423L43.1321 23H41.416L39.4935 16.2621H39.4185L37.4914 23H35.7752Z" fill="white"/>
</svg>
