<svg width="255" height="36" viewBox="0 0 255 36" fill="none" xmlns="http://www.w3.org/2000/svg">
<path d="M253.45 11.695C252.549 10.7363 251.354 10.1512 250.082 10.0453C248.81 9.93945 247.543 10.3198 246.512 11.1177C245.431 10.264 244.084 9.87695 242.744 10.0344C241.404 10.1918 240.17 10.8821 239.291 11.9661C238.411 13.0502 237.951 14.4476 238.004 15.8768C238.057 17.3061 238.618 18.6611 239.575 19.669L244.854 25.2796C245.297 25.7413 245.892 26 246.512 26C247.133 26 247.728 25.7413 248.17 25.2796L253.45 19.669C254.443 18.6093 255 17.176 255 15.682C255 14.188 254.443 12.7546 253.45 11.695ZM252.251 18.4242L246.971 24.0258C246.911 24.0902 246.84 24.1413 246.761 24.1761C246.682 24.211 246.598 24.2289 246.512 24.2289C246.427 24.2289 246.342 24.211 246.264 24.1761C246.185 24.1413 246.113 24.0902 246.053 24.0258L240.773 18.3971C240.107 17.674 239.733 16.7026 239.733 15.691C239.733 14.6794 240.107 13.708 240.773 12.9849C241.453 12.2732 242.369 11.8741 243.324 11.8741C244.279 11.8741 245.195 12.2732 245.875 12.9849C245.954 13.0694 246.048 13.1365 246.151 13.1823C246.255 13.2281 246.366 13.2517 246.478 13.2517C246.591 13.2517 246.702 13.2281 246.805 13.1823C246.909 13.1365 247.003 13.0694 247.082 12.9849C247.761 12.2732 248.678 11.8741 249.633 11.8741C250.587 11.8741 251.504 12.2732 252.183 12.9849C252.859 13.6985 253.245 14.6647 253.258 15.6763C253.27 16.6879 252.909 17.6646 252.251 18.3971V18.4242Z" fill="#BEBEBE"/>
</svg>
