<svg width="41" height="25" viewBox="0 0 41 25" fill="none" xmlns="http://www.w3.org/2000/svg">
<rect x="0.258057" y="0.220703" width="40.6452" height="24.7634" rx="8.94624" fill="#FFE6E1"/>
<path d="M11.2324 16.1025V9.49415H12.4295V12.2917H15.4917V9.49415H16.692V16.1025H15.4917V13.2953H12.4295V16.1025H11.2324ZM23.9899 12.7983C23.9899 13.5104 23.8565 14.1202 23.5897 14.6279C23.3251 15.1334 22.9637 15.5206 22.5055 15.7895C22.0495 16.0584 21.5321 16.1929 20.9535 16.1929C20.3748 16.1929 19.8564 16.0584 19.3982 15.7895C18.9421 15.5185 18.5807 15.1302 18.314 14.6247C18.0494 14.117 17.9171 13.5082 17.9171 12.7983C17.9171 12.0863 18.0494 11.4775 18.314 10.972C18.5807 10.4643 18.9421 10.076 19.3982 9.80714C19.8564 9.53825 20.3748 9.4038 20.9535 9.4038C21.5321 9.4038 22.0495 9.53825 22.5055 9.80714C22.9637 10.076 23.3251 10.4643 23.5897 10.972C23.8565 11.4775 23.9899 12.0863 23.9899 12.7983ZM22.7863 12.7983C22.7863 12.2971 22.7078 11.8744 22.5507 11.5302C22.3958 11.1839 22.1807 10.9225 21.9054 10.7461C21.63 10.5676 21.3127 10.4783 20.9535 10.4783C20.5942 10.4783 20.2769 10.5676 20.0016 10.7461C19.7262 10.9225 19.51 11.1839 19.353 11.5302C19.1981 11.8744 19.1207 12.2971 19.1207 12.7983C19.1207 13.2996 19.1981 13.7233 19.353 14.0697C19.51 14.4139 19.7262 14.6752 20.0016 14.8538C20.2769 15.0302 20.5942 15.1184 20.9535 15.1184C21.3127 15.1184 21.63 15.0302 21.9054 14.8538C22.1807 14.6752 22.3958 14.4139 22.5507 14.0697C22.7078 13.7233 22.7863 13.2996 22.7863 12.7983ZM24.6293 10.4977V9.49415H29.9018V10.4977H27.8592V16.1025H26.6718V10.4977H24.6293Z" fill="#FF7F62"/>
</svg>
