<svg width="106" height="36" viewBox="0 0 106 36" fill="none" xmlns="http://www.w3.org/2000/svg">
<rect width="106" height="36" rx="13" fill="black"/>
<path d="M15.9472 23V13.3972H19.5482C20.2859 13.3972 20.9049 13.5347 21.405 13.8098C21.9083 14.0849 22.2881 14.4631 22.5444 14.9445C22.8039 15.4228 22.9336 15.9667 22.9336 16.5762C22.9336 17.192 22.8039 17.7391 22.5444 18.2173C22.285 18.6956 21.902 19.0723 21.3956 19.3474C20.8892 19.6193 20.2656 19.7553 19.5248 19.7553H17.1381V18.3252H19.2903C19.7217 18.3252 20.0749 18.2502 20.35 18.1001C20.6251 17.9501 20.8283 17.7438 20.9596 17.4812C21.094 17.2186 21.1612 16.917 21.1612 16.5762C21.1612 16.2355 21.094 15.9354 20.9596 15.676C20.8283 15.4165 20.6235 15.2149 20.3453 15.0711C20.0702 14.9242 19.7154 14.8507 19.2809 14.8507H17.6867V23H15.9472ZM24.4446 23V13.3972H28.0456C28.7833 13.3972 29.4023 13.5253 29.9024 13.7817C30.4057 14.038 30.7855 14.3975 31.0418 14.8601C31.3013 15.3196 31.431 15.8557 31.431 16.4684C31.431 17.0842 31.2997 17.6187 31.0371 18.072C30.7777 18.5221 30.3948 18.8707 29.8884 19.1176C29.382 19.3614 28.7599 19.4833 28.0222 19.4833H25.4574V18.0392H27.7877C28.2191 18.0392 28.5723 17.9798 28.8474 17.861C29.1225 17.7391 29.3257 17.5625 29.457 17.3311C29.5914 17.0967 29.6586 16.8091 29.6586 16.4684C29.6586 16.1277 29.5914 15.837 29.457 15.5963C29.3226 15.3524 29.1178 15.168 28.8427 15.043C28.5677 14.9148 28.2129 14.8507 27.7784 14.8507H26.1841V23H24.4446ZM29.4054 18.6487L31.7827 23H29.8415L27.5064 18.6487H29.4054ZM33.0322 23V13.3972H39.2778V14.8554H34.7718V17.4624H38.9543V18.9207H34.7718V21.5418H39.3153V23H33.0322ZM45.3429 17.4999V18.8972H41.0197V17.4999H45.3429ZM47.2032 23V13.3972H48.9428V21.5418H53.1721V23H47.2032ZM62.8887 18.1986C62.8887 19.2333 62.6949 20.1195 62.3072 20.8572C61.9228 21.5918 61.3976 22.1544 60.7318 22.5452C60.0691 22.9359 59.3173 23.1313 58.4764 23.1313C57.6356 23.1313 56.8822 22.9359 56.2164 22.5452C55.5537 22.1513 55.0285 21.5871 54.6409 20.8525C54.2564 20.1148 54.0642 19.2301 54.0642 18.1986C54.0642 17.1639 54.2564 16.2793 54.6409 15.5447C55.0285 14.807 55.5537 14.2427 56.2164 13.852C56.8822 13.4613 57.6356 13.2659 58.4764 13.2659C59.3173 13.2659 60.0691 13.4613 60.7318 13.852C61.3976 14.2427 61.9228 14.807 62.3072 15.5447C62.6949 16.2793 62.8887 17.1639 62.8887 18.1986ZM61.1397 18.1986C61.1397 17.4703 61.0256 16.856 60.7974 16.3559C60.5724 15.8526 60.2598 15.4728 59.8596 15.2165C59.4595 14.957 58.9985 14.8273 58.4764 14.8273C57.9544 14.8273 57.4933 14.957 57.0932 15.2165C56.6931 15.4728 56.3789 15.8526 56.1507 16.3559C55.9257 16.856 55.8131 17.4703 55.8131 18.1986C55.8131 18.9269 55.9257 19.5427 56.1507 20.046C56.3789 20.5462 56.6931 20.926 57.0932 21.1854C57.4933 21.4417 57.9544 21.5699 58.4764 21.5699C58.9985 21.5699 59.4595 21.4417 59.8596 21.1854C60.2598 20.926 60.5724 20.5462 60.7974 20.046C61.0256 19.5427 61.1397 18.9269 61.1397 18.1986ZM65.3023 13.3972L67.8014 20.9557H67.8999L70.3944 13.3972H72.3074L68.9221 23H66.7746L63.3939 13.3972H65.3023ZM73.5723 23V13.3972H79.8179V14.8554H75.3118V17.4624H79.4943V18.9207H75.3118V21.5418H79.8554V23H73.5723ZM84.8467 23H81.5926V13.3972H84.9123C85.8657 13.3972 86.6847 13.5894 87.3693 13.9739C88.057 14.3553 88.5853 14.9039 88.9541 15.6197C89.323 16.3355 89.5074 17.192 89.5074 18.1892C89.5074 19.1895 89.3214 20.0491 88.9494 20.7681C88.5806 21.4871 88.0476 22.0388 87.3505 22.4233C86.6566 22.8078 85.822 23 84.8467 23ZM83.3322 21.4949H84.7623C85.4312 21.4949 85.9892 21.373 86.4362 21.1291C86.8832 20.8822 87.2192 20.5149 87.4443 20.0273C87.6694 19.5365 87.7819 18.9238 87.7819 18.1892C87.7819 17.4546 87.6694 16.8451 87.4443 16.3606C87.2192 15.8729 86.8863 15.5087 86.4456 15.268C86.0079 15.0242 85.464 14.9023 84.8138 14.9023H83.3322V21.4949Z" fill="#FCFF62"/>
</svg>
