<svg width="21" height="26" viewBox="0 0 21 26" fill="none" xmlns="http://www.w3.org/2000/svg">
<g clip-path="url(#clip0_1784_377)">
<path fill-rule="evenodd" clip-rule="evenodd" d="M15.2838 11.3623C14.0884 13.7658 11.1709 14.7451 8.7674 13.5496C6.36393 12.3542 5.38462 9.43674 6.58004 7.03326C7.77547 4.62979 10.6929 3.65048 13.0964 4.8459C15.4999 6.04133 16.4792 8.95881 15.2838 11.3623ZM8.5779 15.6423C11.818 16.8304 15.5019 15.4147 17.0745 12.2529C18.7618 8.86048 17.3795 4.7425 13.9871 3.05517C10.5946 1.36785 6.47664 2.75014 4.78931 6.1426C3.21673 9.30437 4.31047 13.0963 7.21288 14.9634L3.46013 22.5085L4.82515 23.1875L8.5779 15.6423Z" fill="white"/>
</g>
<defs>
<clipPath id="clip0_1784_377">
<rect width="20" height="26" fill="white" transform="translate(0.129639)"/>
</clipPath>
</defs>
</svg>
