<svg width="96" height="36" viewBox="0 0 96 36" fill="none" xmlns="http://www.w3.org/2000/svg">
<rect x="0.5" y="0.5" width="95" height="35" rx="17.5" stroke="#B3B3B3"/>
<path d="M28.3462 13.3972V23H27.1834V14.4287H22.3444V23H21.1816V13.3972H28.3462ZM33.5614 23.15C32.8674 23.15 32.2688 22.9969 31.7656 22.6905C31.2654 22.3811 30.8794 21.9497 30.6074 21.3964C30.3386 20.84 30.2042 20.1929 30.2042 19.4552C30.2042 18.7175 30.3386 18.0673 30.6074 17.5046C30.8794 16.9388 31.2576 16.4981 31.7421 16.1824C32.2298 15.8635 32.7987 15.7041 33.4489 15.7041C33.824 15.7041 34.1944 15.7666 34.5601 15.8917C34.9259 16.0167 35.2588 16.2199 35.5589 16.5012C35.859 16.7794 36.0981 17.1483 36.2763 17.6078C36.4544 18.0673 36.5435 18.6331 36.5435 19.3052V19.7741H30.9919V18.8175H35.4182C35.4182 18.4112 35.3369 18.0485 35.1744 17.7297C35.015 17.4109 34.7868 17.1592 34.4898 16.9748C34.196 16.7904 33.849 16.6982 33.4489 16.6982C33.0081 16.6982 32.6268 16.8076 32.3048 17.0264C31.9859 17.2421 31.7406 17.5234 31.5686 17.8704C31.3967 18.2173 31.3107 18.5893 31.3107 18.9863V19.624C31.3107 20.1679 31.4045 20.629 31.5921 21.0072C31.7828 21.3823 32.0469 21.6684 32.3845 21.8653C32.7221 22.0591 33.1144 22.156 33.5614 22.156C33.8521 22.156 34.1147 22.1154 34.3491 22.0341C34.5867 21.9497 34.7914 21.8247 34.9634 21.659C35.1353 21.4902 35.2682 21.2807 35.3619 21.0307L36.431 21.3308C36.3185 21.6934 36.1293 22.0122 35.8636 22.2873C35.5979 22.5592 35.2697 22.7718 34.879 22.925C34.4882 23.075 34.049 23.15 33.5614 23.15ZM38.2268 25.7008V15.7979H39.2959V16.942H39.4272C39.5085 16.8169 39.621 16.6575 39.7648 16.4637C39.9117 16.2668 40.1211 16.0917 40.3931 15.9386C40.6682 15.7823 41.0402 15.7041 41.509 15.7041C42.1155 15.7041 42.65 15.8557 43.1126 16.1589C43.5753 16.4621 43.9363 16.892 44.1958 17.4484C44.4552 18.0048 44.5849 18.6612 44.5849 19.4177C44.5849 20.1804 44.4552 20.8416 44.1958 21.4011C43.9363 21.9575 43.5768 22.3889 43.1173 22.6952C42.6578 22.9984 42.128 23.15 41.5278 23.15C41.0652 23.15 40.6947 23.0735 40.4165 22.9203C40.1383 22.764 39.9242 22.5874 39.7742 22.3904C39.6241 22.1904 39.5085 22.0247 39.4272 21.8934H39.3334V25.7008H38.2268ZM39.3147 19.3989C39.3147 19.9429 39.3944 20.4227 39.5538 20.8384C39.7132 21.251 39.9461 21.5746 40.2524 21.809C40.5588 22.0403 40.9339 22.156 41.3778 22.156C41.8404 22.156 42.2264 22.0341 42.5359 21.7903C42.8485 21.5433 43.0829 21.212 43.2392 20.7962C43.3987 20.3774 43.4784 19.9116 43.4784 19.3989C43.4784 18.8925 43.4002 18.4362 43.2439 18.0298C43.0908 17.6203 42.8579 17.2968 42.5453 17.0592C42.2358 16.8185 41.8466 16.6982 41.3778 16.6982C40.9276 16.6982 40.5494 16.8122 40.243 17.0404C39.9367 17.2655 39.7054 17.5812 39.5491 17.9876C39.3928 18.3908 39.3147 18.8613 39.3147 19.3989ZM49.2926 23.15C48.5986 23.15 48 22.9969 47.4967 22.6905C46.9966 22.3811 46.6105 21.9497 46.3386 21.3964C46.0698 20.84 45.9353 20.1929 45.9353 19.4552C45.9353 18.7175 46.0698 18.0673 46.3386 17.5046C46.6105 16.9388 46.9888 16.4981 47.4733 16.1824C47.9609 15.8635 48.5299 15.7041 49.18 15.7041C49.5552 15.7041 49.9256 15.7666 50.2913 15.8917C50.657 16.0167 50.99 16.2199 51.29 16.5012C51.5901 16.7794 51.8293 17.1483 52.0074 17.6078C52.1856 18.0673 52.2747 18.6331 52.2747 19.3052V19.7741H46.7231V18.8175H51.1494C51.1494 18.4112 51.0681 18.0485 50.9056 17.7297C50.7461 17.4109 50.5179 17.1592 50.221 16.9748C49.9271 16.7904 49.5802 16.6982 49.18 16.6982C48.7393 16.6982 48.3579 16.8076 48.036 17.0264C47.7171 17.2421 47.4717 17.5234 47.2998 17.8704C47.1279 18.2173 47.0419 18.5893 47.0419 18.9863V19.624C47.0419 20.1679 47.1357 20.629 47.3233 21.0072C47.5139 21.3823 47.7781 21.6684 48.1157 21.8653C48.4533 22.0591 48.8456 22.156 49.2926 22.156C49.5833 22.156 49.8459 22.1154 50.0803 22.0341C50.3179 21.9497 50.5226 21.8247 50.6946 21.659C50.8665 21.4902 50.9993 21.2807 51.0931 21.0307L52.1622 21.3308C52.0496 21.6934 51.8605 22.0122 51.5948 22.2873C51.3291 22.5592 51.0009 22.7718 50.6102 22.925C50.2194 23.075 49.7802 23.15 49.2926 23.15ZM55.0646 21.3683L58.5344 15.7979H59.8097V23H58.7032V17.4296L55.2521 23H53.958V15.7979H55.0646V21.3683ZM57.8029 13.3972H58.8344C58.8344 13.9036 58.6594 14.3178 58.3093 14.6397C57.9592 14.9617 57.484 15.1227 56.8839 15.1227C56.2931 15.1227 55.8226 14.9617 55.4725 14.6397C55.1255 14.3178 54.9521 13.9036 54.9521 13.3972H55.9836C55.9836 13.641 56.0508 13.8551 56.1852 14.0396C56.3228 14.224 56.5556 14.3162 56.8839 14.3162C57.2121 14.3162 57.4465 14.224 57.5872 14.0396C57.731 13.8551 57.8029 13.641 57.8029 13.3972ZM60.8565 16.8294V15.7979H66.7082V16.8294H64.345V23H63.2385V16.8294H60.8565ZM69.429 21.3683L72.8987 15.7979H74.1741V23H73.0675V17.4296L69.6165 23H68.3224V15.7979H69.429V21.3683Z" fill="black"/>
</svg>
